<svg width="21" height="25" viewBox="0 0 21 25" fill="none" xmlns="http://www.w3.org/2000/svg">
<path d="M14.7012 8.80231C14.2201 8.80231 13.821 8.40327 13.821 7.92208V3.81433C13.821 2.5468 13.0347 1.76046 11.7671 1.76046H8.24622C6.97869 1.76046 6.19235 2.5468 6.19235 3.81433V7.92208C6.19235 8.40327 5.79331 8.80231 5.31212 8.80231C4.83092 8.80231 4.43188 8.40327 4.43188 7.92208V3.81433C4.43188 1.57268 6.00456 0 8.24622 0H11.7671C14.0088 0 15.5815 1.57268 15.5815 3.81433V7.92208C15.5815 8.40327 15.1824 8.80231 14.7012 8.80231Z" fill="white"/>
<path d="M5.31215 19.4003C4.83096 19.4003 4.43192 19.0013 4.43192 18.5201C4.43192 18.0271 4.83096 17.6398 5.31215 17.6398H19.1142C19.4663 17.6398 19.7362 17.3347 19.701 16.9826L18.9029 10.3046C18.6212 8.02771 18.2222 6.16162 14.2318 6.16162H5.7816C1.79122 6.16162 1.39219 8.02771 1.12225 10.3046L0.0659721 19.1069C-0.274384 21.994 0.617583 24.3531 4.73706 24.3531H15.2764C18.9851 24.3531 20.0766 22.44 20.0179 19.9519C20.0061 19.635 19.7479 19.4003 19.4311 19.4003H5.31215Z" fill="white"/>
</svg>
