<svg width="25" height="24" viewBox="0 0 25 24" fill="none" xmlns="http://www.w3.org/2000/svg">
<path d="M12.6522 13.5544C8.91533 13.5544 5.875 10.514 5.875 6.77721C5.875 3.04033 8.91499 0 12.6522 0C16.3892 0 19.4294 3.04038 19.4294 6.7777C19.4294 10.5147 16.3892 13.5549 12.6522 13.5549V13.5544ZM12.6522 1.20821C9.58146 1.20821 7.08272 3.70631 7.08272 6.7777C7.08272 9.84865 9.58082 12.3472 12.6522 12.3472C15.7232 12.3472 18.2217 9.84909 18.2217 6.7777C18.2215 3.70656 15.723 1.20821 12.6522 1.20821V1.20821Z" fill="white"/>
<path d="M24.3264 23.9998C23.9928 23.9998 23.7224 23.7294 23.7224 23.3958V21.654C23.7224 19.2487 21.7654 17.2919 19.3603 17.2919H5.94435C3.53909 17.2919 1.58228 19.2489 1.58228 21.654V23.3958C1.58228 23.7294 1.31191 23.9998 0.978274 23.9998C0.644637 23.9998 0.374268 23.7294 0.374268 23.3958V21.654C0.374268 18.5824 2.87296 16.0835 5.94474 16.0835H19.3607C22.4323 16.0835 24.9312 18.5822 24.9312 21.654V23.3958C24.931 23.729 24.6605 23.9998 24.3269 23.9998H24.3264Z" fill="white"/>
</svg>
