<svg width="32" height="24" viewBox="0 0 32 24" fill="none" xmlns="http://www.w3.org/2000/svg">
<path fill-rule="evenodd" clip-rule="evenodd" d="M24.898 18.3104C23.6108 18.9463 22.1613 19.3037 20.6284 19.3037C15.2978 19.3037 10.9766 14.9824 10.9766 9.65185C10.9766 4.32128 15.2978 0 20.6284 0C25.959 0 30.2803 4.32128 30.2803 9.65185C30.2803 12.8654 28.7098 15.7121 26.2945 17.4664L31.455 22.6269C31.7691 22.941 31.7691 23.4503 31.455 23.7644C31.1409 24.0785 30.6316 24.0785 30.3175 23.7644L25.0204 18.4673C24.9722 18.4191 24.9314 18.3663 24.898 18.3104ZM28.6714 9.65138C28.6714 14.0935 25.0704 17.6946 20.6282 17.6946C16.1861 17.6946 12.585 14.0935 12.585 9.65138C12.585 5.20924 16.1861 1.60817 20.6282 1.60817C25.0704 1.60817 28.6714 5.20924 28.6714 9.65138Z" fill="white"/>
<path fill-rule="evenodd" clip-rule="evenodd" d="M11.5868 2.88477H0.967819C0.433307 2.88477 0 3.31807 0 3.85258C0 4.3871 0.433307 4.8204 0.967819 4.8204H10.4287C10.7528 4.13605 11.1414 3.48822 11.5868 2.88477ZM9.31133 9.65935H0.967819C0.433307 9.65935 0 10.0927 0 10.6272C0 11.1617 0.433307 11.595 0.967819 11.595H9.44505C9.35633 11.0146 9.31032 10.4202 9.31032 9.815C9.31032 9.76304 9.31066 9.71115 9.31133 9.65935ZM11.3653 16.4347H0.967819C0.433307 16.4347 0 16.868 0 17.4025C0 17.937 0.433307 18.3704 0.967819 18.3704H13.0371C12.4122 17.7889 11.851 17.1398 11.3653 16.4347Z" fill="white"/>
</svg>
